<svg xmlns="http://www.w3.org/2000/svg" xmlns:svg="http://www.w3.org/2000/svg" xmlns:xlink="http://www.w3.org/1999/xlink" id="svg48241" width="40" height="43.04" version="1.1" viewBox="0 0 10.583 11.388"><defs id="defs48238"><linearGradient id="linearGradient48143" x1="531.872" x2="541.999" y1="343.937" y2="344.309" gradientTransform="matrix(0.23046259,0,0,0.23046259,-27.608878,35.179172)" gradientUnits="userSpaceOnUse" xlink:href="#linearGradient38778"/><linearGradient id="linearGradient38778"><stop style="stop-color:#1a1a1a;stop-opacity:0" id="stop38774" offset="0"/><stop style="stop-color:#000;stop-opacity:1" id="stop39138" offset=".479"/><stop style="stop-color:#1a1a1a;stop-opacity:0" id="stop38776" offset="1"/></linearGradient><linearGradient id="linearGradient48145" x1="2064.677" x2="2034.417" y1="1269.23" y2="1430.791" gradientTransform="matrix(0.06097656,0,0,0.06097656,-30.725617,27.717987)" gradientUnits="userSpaceOnUse" xlink:href="#linearGradient36795"/><linearGradient id="linearGradient36795"><stop style="stop-color:#fc0;stop-opacity:1" id="stop36791" offset="0"/><stop style="stop-color:red;stop-opacity:1" id="stop36793" offset="1"/></linearGradient><linearGradient id="linearGradient48147" x1="531.872" x2="541.999" y1="343.937" y2="344.309" gradientTransform="matrix(0.23046259,0,0,0.23046259,-30.725617,27.717987)" gradientUnits="userSpaceOnUse" xlink:href="#linearGradient38778"/><linearGradient id="linearGradient48149" x1="527.636" x2="537.05" y1="385.23" y2="342.484" gradientTransform="matrix(0.23046259,0,0,0.23046259,-30.725617,27.717987)" gradientUnits="userSpaceOnUse" xlink:href="#linearGradient36795"/></defs><g id="layer1" transform="translate(-88.508842,-105.1113)"><g id="g48530"><path style="color:#000;-inkscape-font-specification:'Keraleeyam Bold';fill:url(#linearGradient48149);fill-opacity:1;stroke-width:.853673;stroke-linecap:round;stroke-linejoin:round;-inkscape-stroke:none" id="path48135" d="m 91.344655,106.64764 a 0.42687899,0.42687899 0 0 0 -0.412311,0.31643 l -2.409054,8.99794 a 0.42687899,0.42687899 0 0 0 0.412312,0.537 h 6.798197 a 0.42687899,0.42687899 0 0 0 0.412312,-0.31644 l 0.804367,-2.99961 a 0.42687899,0.42687899 0 0 0 -0.412311,-0.53745 h -2.846124 l 1.464249,-5.46043 a 0.42687899,0.42687899 0 0 0 -0.412314,-0.53744 z m 0.32769,0.85388 h 2.515283 l -1.464246,5.46043 a 0.42687899,0.42687899 0 0 0 0.412311,0.53745 h 2.846123 l -0.575707,2.14618 h -5.914606 z"/><path style="opacity:.336086;fill:url(#linearGradient48147);fill-opacity:1;stroke:none;stroke-width:.0609765px;stroke-linecap:butt;stroke-linejoin:miter;stroke-opacity:1" id="path48137" d="m 91.916248,107.50152 0.228797,-0.85388 h 2.027474 l -0.228797,0.85388 z"/><path id="path48139" d="m 93.471604,105.1113 c -0.193211,1e-5 -0.362315,0.1298 -0.412305,0.31643 l -2.409049,8.99797 c -0.07235,0.27098 0.13183,0.53691 0.412305,0.537 h 4.527157 l 0.22866,-0.85344 h -4.199881 l 2.180863,-8.14405 h 2.515282 l -1.464267,5.4605 c -0.07264,0.2711 0.131638,0.53733 0.412307,0.53735 h 2.846128 l -0.575703,2.1462 h -0.831209 l -0.228661,0.85344 h 1.387496 c 0.19321,-2e-5 0.362317,-0.1298 0.412307,-0.31643 l 0.804365,-2.99965 c 0.07264,-0.2711 -0.131636,-0.53733 -0.412305,-0.53735 h -2.84613 l 1.464272,-5.4605 c 0.07273,-0.27115 -0.131573,-0.53747 -0.412304,-0.53747 z" style="color:#000;-inkscape-font-specification:'Keraleeyam Bold';fill:url(#linearGradient48145);fill-opacity:1;stroke-width:.853673;-inkscape-stroke:none"/><path id="path48141" d="m 95.261839,114.10879 -0.2289,0.85391 h 0.556411 l 0.229022,-0.85391 z m 1.440334,0 -0.2289,0.85391 h 0.587138 l 0.2289,-0.85391 z" style="opacity:.336086;fill:url(#linearGradient48143);fill-opacity:1;stroke:none;stroke-width:.0609765px;stroke-linecap:butt;stroke-linejoin:miter;stroke-opacity:1"/></g></g></svg>